<svg width="2690" height="500" viewBox="0 0 2690 500" fill="none" xmlns="http://www.w3.org/2000/svg">
<path d="M203.137 278.827C203.137 236.083 242.473 215.706 242.473 215.706C242.473 215.706 278.931 239.563 278.931 278.827C278.931 318.091 252.067 340.954 252.067 340.954V399.602C252.067 399.602 262.14 354.871 298.599 317.594C335.057 280.318 384.946 293.738 384.946 293.738C384.946 293.738 384.946 351.889 351.367 380.716C317.787 409.543 270.297 411.986 263.58 416.004C256.864 420.022 252.067 424.453 252.067 428.926V490.06C252.067 490.06 252.547 500 242.473 500C232.399 500 232.399 490.06 232.399 490.06V428.926C232.399 424.453 226.163 416.111 220.407 414.513C214.65 412.915 158.044 408.052 131.66 380.716C105.276 353.379 98.5601 293.738 98.5601 293.738C98.5601 293.738 151.328 281.809 185.867 317.594C220.406 353.38 232.879 387.177 232.879 387.177V340.954C232.879 340.954 203.137 321.571 203.137 278.827Z" fill="#297141"/>
<path d="M240.075 50.6958C86.0886 50.6958 47.7113 178.926 7.41581 137.177C-32.8797 95.4275 97.6016 0 240.075 0C382.548 0 516.867 95.9244 477.051 137.177C437.235 178.429 394.061 50.6958 240.075 50.6958Z" fill="#297141"/>
<path d="M647.183 488V162H859.717V218.886H713.653V295.463H848.498V351.255H713.653V431.114H860.141V488H647.183Z" fill="#297141"/>
<path d="M866.633 488V162H990.682C1026.53 162 1054.33 171.7 1074.09 191.099C1093.99 210.499 1103.94 236.316 1103.94 268.552C1103.94 290.868 1099.14 309.976 1089.54 325.875C1079.94 341.628 1066.18 353.443 1048.26 361.319L1115.15 488H1041.49L981.791 372.478H933.103V488H866.633ZM933.103 317.124H978.192C1016.3 317.124 1035.35 300.933 1035.35 268.552C1035.35 252.361 1030.62 239.963 1021.16 231.357C1011.71 222.751 997.315 218.448 977.981 218.448H933.103V317.124Z" fill="#297141"/>
<path d="M1125.07 488V162H1249.12C1284.97 162 1312.77 171.7 1332.53 191.099C1352.42 210.499 1362.37 236.316 1362.37 268.552C1362.37 290.868 1357.58 309.976 1347.98 325.875C1338.38 341.628 1324.62 353.443 1306.7 361.319L1373.59 488H1299.93L1240.23 372.478H1191.54V488H1125.07ZM1191.54 317.124H1236.63C1274.74 317.124 1293.79 300.933 1293.79 268.552C1293.79 252.361 1289.06 239.963 1279.6 231.357C1270.15 222.751 1255.75 218.448 1236.42 218.448H1191.54V317.124Z" fill="#297141"/>
<path d="M1453.14 488H1381.59L1490.61 162H1685.15V488H1613.81L1590.32 413.611H1476.43L1453.14 488ZM1493.36 359.788H1573.38L1534.64 236.389H1532.1L1493.36 359.788Z" fill="#297141"/>
<path d="M1685.15 488V162H1811.32C1846.04 162 1872.14 169.877 1889.64 185.63C1907.14 201.237 1915.89 221.22 1915.89 245.579C1915.89 264.686 1910.46 280.221 1899.59 292.181C1888.87 303.996 1875.32 311.8 1858.95 315.592V318.874C1870.94 319.457 1882.16 322.958 1892.61 329.376C1903.19 335.794 1911.73 344.837 1918.22 356.506C1924.85 368.029 1928.17 381.813 1928.17 397.858C1928.17 415.069 1924.08 430.531 1915.89 444.242C1907.71 457.807 1895.57 468.528 1879.48 476.404C1863.39 484.135 1843.5 488 1819.79 488H1685.15ZM1801.16 298.526C1814.71 298.526 1826 294.807 1835.03 287.368C1844.06 279.929 1848.58 269.792 1848.58 256.956C1848.58 245.287 1844.55 235.879 1836.51 228.732C1828.47 221.438 1817.11 217.792 1802.43 217.792H1751.62V298.526H1801.16ZM1806.03 431.77C1824.66 431.77 1838.2 428.051 1846.67 420.612C1855.28 413.173 1859.58 403.328 1859.58 391.075C1859.58 377.656 1854.93 366.643 1845.61 358.038C1836.3 349.286 1823.67 344.91 1807.72 344.91H1751.62V431.77H1806.03Z" fill="#297141"/>
<path d="M1899.59 162H1974.53L2046.29 302.464H2049.47L2121.44 162H2196.17L2081.01 372.915V488H2014.75V372.915L1899.59 162Z" fill="#297141"/>
<path d="M2176.99 218.886L2208.48 162H2467.5V218.886H2371.39V488H2304.92V218.886H2176.99Z" fill="#297141"/>
<path d="M2477.04 488V162H2689.58V218.886H2543.51V295.463H2678.36V351.255H2543.51V431.114H2690V488H2477.04Z" fill="#297141"/>
<path d="M127.49 201.076C108.352 216.737 95.9334 226.9 80.8115 211.233C47.7115 176.939 132.14 105.368 240.075 105.368C307.358 105.368 360.754 162 394.129 162H647.183V218.886H551.076V488H484.606V218.886C484.606 218.886 434.282 219.262 408.138 219.262C381.994 219.262 353.228 200.942 353.228 200.942C344.745 195.885 297.11 156.064 240.075 156.064C182.493 156.064 150.243 182.456 127.49 201.076Z" fill="#297141"/>
</svg>
