<svg width="256" height="256" viewBox="0 0 256 256" fill="none" xmlns="http://www.w3.org/2000/svg">
<path d="M107.411 142.759C107.411 120.875 128.21 110.441 128.21 110.441C128.21 110.441 147.488 122.656 147.488 142.759C147.488 162.863 133.283 174.569 133.283 174.569V204.596C133.283 204.596 138.61 181.694 157.888 162.608C177.165 143.523 203.545 150.394 203.545 150.394C203.545 150.394 203.545 180.167 185.789 194.926C168.034 209.686 142.923 210.937 139.371 212.994C135.82 215.051 133.283 217.32 133.283 219.61V250.911C133.283 250.911 133.537 256 128.21 256C122.884 256 122.884 250.911 122.884 250.911V219.61C122.884 217.32 119.586 213.049 116.543 212.231C113.499 211.412 83.5677 208.923 69.6168 194.926C55.666 180.93 52.1149 150.394 52.1149 150.394C52.1149 150.394 80.0166 144.286 98.2795 162.608C116.542 180.93 123.137 198.235 123.137 198.235V174.569C123.137 174.569 107.411 164.644 107.411 142.759Z" fill="#297141"/>
<path d="M126.942 79.9046C70.8854 79.9046 60.2321 125.71 42.7301 108.151C25.228 90.5926 69.8707 53.9483 126.942 53.9483C184.014 53.9483 230.686 90.0835 212.677 108.151C194.668 126.219 183 79.9046 126.942 79.9046Z" fill="#297141"/>
<path d="M126.943 25.9563C45.5204 25.9563 25.2279 91.6103 3.9212 70.2346C-17.3855 48.8589 51.608 0 126.943 0C202.277 0 273.3 49.1133 252.246 70.2346C231.193 91.3559 208.365 25.9563 126.943 25.9563Z" fill="#297141"/>
</svg>
